<svg xmlns="http://www.w3.org/2000/svg" viewBox="0 0 1349.92 759.33"><rect width="1349.92" height="759.33" fill="#412b7c" id="bg" class="bg"/><g><g transform="translate(0.00,&#10;                                0.00) rotate(90, 112.49333333333334, 112.49333333333334)"><svg xmlns="http://www.w3.org/2000/svg" id="Layer_1" data-name="Layer 1" viewBox="0 0 100 100" width="224.98666666666668" height="224.98666666666668"><path d="M92.043,50S77.614,100,50,100A50,50,0,0,1,50,0C77.614,0,92.043,50,92.043,50Z" fill="#EEF1D4"/><path d="M50,0a50,50,0,1,1,0,100" fill="#336FAB"/><path d="M74.75,74.75A34.9,34.9,0,0,1,50,85V70a20,20,0,0,0,0-40V15A35,35,0,0,1,74.75,74.75Z" fill="#EEF1D4"/><path d="M50,15V85a35,35,0,1,1,0-70Z" fill="#336FAB"/><path d="M64.14,64.14A19.945,19.945,0,0,1,50,70V30A20,20,0,0,1,64.14,64.14Z" fill="#336FAB"/><path d="M50,30V70a20,20,0,0,1,0-40Z" fill="#EEF1D4"/></svg></g><g transform="translate(224.99,&#10;                                0.00) rotate(0, 112.49333333333334, 112.49333333333334)"><svg xmlns="http://www.w3.org/2000/svg" id="Layer_1" data-name="Layer 1" viewBox="0 0 100 100" width="224.98666666666668" height="224.98666666666668"><polygon points="36.929 8.282 24.015 21.196 21.19 24.009 2 30.647 17.726 14.908 36.929 8.282" fill="#92DB8D" stroke="#26273B" stroke-linecap="round" stroke-linejoin="round" stroke-width="4"/><polygon points="82.274 8.282 69.359 21.196 59.595 30.949 53.319 24.672 63.071 14.908 82.274 8.282" fill="#92DB8D" stroke="#26273B" stroke-linecap="round" stroke-linejoin="round" stroke-width="4"/><polygon points="43.872 46.691 24.662 53.309 2 30.647 21.19 24.009 43.872 46.691" fill="#26273B" stroke="#26273B" stroke-linecap="round" stroke-linejoin="round" stroke-width="4"/><polygon points="43.872 46.691 21.19 69.353 2 75.991 24.652 53.319 24.662 53.309 43.872 46.691" fill="#92DB8D" stroke="#26273B" stroke-linecap="round" stroke-linejoin="round" stroke-width="4"/><polygon points="36.929 85.092 17.726 91.718 2 75.991 21.19 69.353 36.929 85.092" fill="#26273B" stroke="#26273B" stroke-linecap="round" stroke-linejoin="round" stroke-width="4"/><polygon points="75.334 46.687 98 69.353 82.274 85.092 75.985 78.804 59.595 62.413 46.681 75.328 36.929 85.092 21.19 69.353 43.869 46.687 21.19 24.009 24.015 21.196 36.929 8.282 59.595 30.949 69.359 21.196 82.274 8.282 98 24.009 75.334 46.687" fill="#00FFC7" stroke="#26273B" stroke-linecap="round" stroke-linejoin="round" stroke-width="4"/><polygon points="82.274 85.092 63.071 91.718 46.681 75.328 59.595 62.413 75.985 78.804 82.274 85.092" fill="#26273B" stroke="#26273B" stroke-linecap="round" stroke-linejoin="round" stroke-width="4"/></svg></g><g transform="translate(0.00,&#10;                                224.99) rotate(270, 112.49333333333334, 112.49333333333334)"><svg xmlns="http://www.w3.org/2000/svg" id="Layer_1" data-name="Layer 1" viewBox="0 0 100 100" width="224.98666666666668" height="224.98666666666668"><path d="M87.092,0V14.879H13.838V83.944L0,87.092,13.838,100H100V14.879ZM82.849,81.808H32.03V32.03H82.849Z" fill="#411B1E"/><path d="M87.092,87.092H0V0H87.092ZM16.73,70.362H70.362V16.73H16.73Z" fill="#D481AE"/></svg></g><g transform="translate(674.96,&#10;                                0.00) rotate(180, 112.49333333333334, 112.49333333333334)"><svg xmlns="http://www.w3.org/2000/svg" id="Layer_1" data-name="Layer 1" viewBox="0 0 100 100" width="224.98666666666668" height="224.98666666666668"><path d="M92.043,50S77.614,100,50,100A50,50,0,0,1,50,0C77.614,0,92.043,50,92.043,50Z" fill="#EEF1D4"/><path d="M50,0a50,50,0,1,1,0,100" fill="#336FAB"/><path d="M74.75,74.75A34.9,34.9,0,0,1,50,85V70a20,20,0,0,0,0-40V15A35,35,0,0,1,74.75,74.75Z" fill="#EEF1D4"/><path d="M50,15V85a35,35,0,1,1,0-70Z" fill="#336FAB"/><path d="M64.14,64.14A19.945,19.945,0,0,1,50,70V30A20,20,0,0,1,64.14,64.14Z" fill="#336FAB"/><path d="M50,30V70a20,20,0,0,1,0-40Z" fill="#EEF1D4"/></svg></g><g transform="translate(449.97,&#10;                                224.99) rotate(90, 112.49333333333334, 112.49333333333334)"><svg xmlns="http://www.w3.org/2000/svg" id="Layer_1" data-name="Layer 1" viewBox="0 0 100 100" width="224.98666666666668" height="224.98666666666668"><polygon points="36.929 8.282 24.015 21.196 21.19 24.009 2 30.647 17.726 14.908 36.929 8.282" fill="#92DB8D" stroke="#26273B" stroke-linecap="round" stroke-linejoin="round" stroke-width="4"/><polygon points="82.274 8.282 69.359 21.196 59.595 30.949 53.319 24.672 63.071 14.908 82.274 8.282" fill="#92DB8D" stroke="#26273B" stroke-linecap="round" stroke-linejoin="round" stroke-width="4"/><polygon points="43.872 46.691 24.662 53.309 2 30.647 21.19 24.009 43.872 46.691" fill="#26273B" stroke="#26273B" stroke-linecap="round" stroke-linejoin="round" stroke-width="4"/><polygon points="43.872 46.691 21.19 69.353 2 75.991 24.652 53.319 24.662 53.309 43.872 46.691" fill="#92DB8D" stroke="#26273B" stroke-linecap="round" stroke-linejoin="round" stroke-width="4"/><polygon points="36.929 85.092 17.726 91.718 2 75.991 21.19 69.353 36.929 85.092" fill="#26273B" stroke="#26273B" stroke-linecap="round" stroke-linejoin="round" stroke-width="4"/><polygon points="75.334 46.687 98 69.353 82.274 85.092 75.985 78.804 59.595 62.413 46.681 75.328 36.929 85.092 21.19 69.353 43.869 46.687 21.19 24.009 24.015 21.196 36.929 8.282 59.595 30.949 69.359 21.196 82.274 8.282 98 24.009 75.334 46.687" fill="#00FFC7" stroke="#26273B" stroke-linecap="round" stroke-linejoin="round" stroke-width="4"/><polygon points="82.274 85.092 63.071 91.718 46.681 75.328 59.595 62.413 75.985 78.804 82.274 85.092" fill="#26273B" stroke="#26273B" stroke-linecap="round" stroke-linejoin="round" stroke-width="4"/></svg></g><g transform="translate(899.95,&#10;                                0.00) rotate(90, 112.49333333333334, 112.49333333333334)"><svg xmlns="http://www.w3.org/2000/svg" id="Layer_1" data-name="Layer 1" viewBox="0 0 100 100" width="224.98666666666668" height="224.98666666666668"><path d="M87.092,0V14.879H13.838V83.944L0,87.092,13.838,100H100V14.879ZM82.849,81.808H32.03V32.03H82.849Z" fill="#411B1E"/><path d="M87.092,87.092H0V0H87.092ZM16.73,70.362H70.362V16.73H16.73Z" fill="#D481AE"/></svg></g><g transform="translate(1124.93,&#10;                                0.00) rotate(180, 112.49333333333334, 112.49333333333334)"><svg xmlns="http://www.w3.org/2000/svg" id="Layer_1" data-name="Layer 1" viewBox="0 0 100 100" width="224.98666666666668" height="224.98666666666668"><polygon points="100 30.093 87.641 24.628 82.468 22.334 74.878 6.118 92.4 13.887 100 30.093" fill="#C9DB6B"/><polygon points="100 30.093 71.755 93.882 61.494 89.339 7.6 65.467 12.349 54.736 15.359 47.935 61.983 68.581 82.468 22.334 87.641 24.628 100 30.093" fill="#C7E021"/><polygon points="61.983 68.581 15.359 47.935 7.769 31.73 54.392 52.375 61.983 68.581" fill="#C9DB6B"/><polygon points="82.468 22.334 61.983 68.581 54.392 52.375 74.878 6.118 82.468 22.334" fill="#626533"/><polygon points="15.359 47.935 12.349 54.736 7.6 65.467 0 49.262 7.769 31.73 15.359 47.935" fill="#626533"/></svg></g><g transform="translate(899.95,&#10;                                224.99) rotate(0, 112.49333333333334, 112.49333333333334)"><svg xmlns="http://www.w3.org/2000/svg" id="Layer_1" data-name="Layer 1" viewBox="0 0 100 100" width="224.98666666666668" height="224.98666666666668"><polygon points="36.929 8.282 24.015 21.196 21.19 24.009 2 30.647 17.726 14.908 36.929 8.282" fill="#92DB8D" stroke="#26273B" stroke-linecap="round" stroke-linejoin="round" stroke-width="4"/><polygon points="82.274 8.282 69.359 21.196 59.595 30.949 53.319 24.672 63.071 14.908 82.274 8.282" fill="#92DB8D" stroke="#26273B" stroke-linecap="round" stroke-linejoin="round" stroke-width="4"/><polygon points="43.872 46.691 24.662 53.309 2 30.647 21.19 24.009 43.872 46.691" fill="#26273B" stroke="#26273B" stroke-linecap="round" stroke-linejoin="round" stroke-width="4"/><polygon points="43.872 46.691 21.19 69.353 2 75.991 24.652 53.319 24.662 53.309 43.872 46.691" fill="#92DB8D" stroke="#26273B" stroke-linecap="round" stroke-linejoin="round" stroke-width="4"/><polygon points="36.929 85.092 17.726 91.718 2 75.991 21.19 69.353 36.929 85.092" fill="#26273B" stroke="#26273B" stroke-linecap="round" stroke-linejoin="round" stroke-width="4"/><polygon points="75.334 46.687 98 69.353 82.274 85.092 75.985 78.804 59.595 62.413 46.681 75.328 36.929 85.092 21.19 69.353 43.869 46.687 21.19 24.009 24.015 21.196 36.929 8.282 59.595 30.949 69.359 21.196 82.274 8.282 98 24.009 75.334 46.687" fill="#00FFC7" stroke="#26273B" stroke-linecap="round" stroke-linejoin="round" stroke-width="4"/><polygon points="82.274 85.092 63.071 91.718 46.681 75.328 59.595 62.413 75.985 78.804 82.274 85.092" fill="#26273B" stroke="#26273B" stroke-linecap="round" stroke-linejoin="round" stroke-width="4"/></svg></g><g transform="translate(1124.93,&#10;                                224.99) rotate(90, 112.49333333333334, 112.49333333333334)"><svg xmlns="http://www.w3.org/2000/svg" id="Layer_1" data-name="Layer 1" viewBox="0 0 100 100" width="224.98666666666668" height="224.98666666666668"><polygon points="36.929 8.282 24.015 21.196 21.19 24.009 2 30.647 17.726 14.908 36.929 8.282" fill="#92DB8D" stroke="#26273B" stroke-linecap="round" stroke-linejoin="round" stroke-width="4"/><polygon points="82.274 8.282 69.359 21.196 59.595 30.949 53.319 24.672 63.071 14.908 82.274 8.282" fill="#92DB8D" stroke="#26273B" stroke-linecap="round" stroke-linejoin="round" stroke-width="4"/><polygon points="43.872 46.691 24.662 53.309 2 30.647 21.19 24.009 43.872 46.691" fill="#26273B" stroke="#26273B" stroke-linecap="round" stroke-linejoin="round" stroke-width="4"/><polygon points="43.872 46.691 21.19 69.353 2 75.991 24.652 53.319 24.662 53.309 43.872 46.691" fill="#92DB8D" stroke="#26273B" stroke-linecap="round" stroke-linejoin="round" stroke-width="4"/><polygon points="36.929 85.092 17.726 91.718 2 75.991 21.19 69.353 36.929 85.092" fill="#26273B" stroke="#26273B" stroke-linecap="round" stroke-linejoin="round" stroke-width="4"/><polygon points="75.334 46.687 98 69.353 82.274 85.092 75.985 78.804 59.595 62.413 46.681 75.328 36.929 85.092 21.19 69.353 43.869 46.687 21.19 24.009 24.015 21.196 36.929 8.282 59.595 30.949 69.359 21.196 82.274 8.282 98 24.009 75.334 46.687" fill="#00FFC7" stroke="#26273B" stroke-linecap="round" stroke-linejoin="round" stroke-width="4"/><polygon points="82.274 85.092 63.071 91.718 46.681 75.328 59.595 62.413 75.985 78.804 82.274 85.092" fill="#26273B" stroke="#26273B" stroke-linecap="round" stroke-linejoin="round" stroke-width="4"/></svg></g></g><g><g transform="translate(224.99,&#10;                                449.97) rotate(270, 112.49333333333334, 112.49333333333334)"><svg xmlns="http://www.w3.org/2000/svg" id="Layer_1" data-name="Layer 1" viewBox="0 0 100 100" width="224.98666666666668" height="224.98666666666668"><polygon points="100 30.093 87.641 24.628 82.468 22.334 74.878 6.118 92.4 13.887 100 30.093" fill="#C9DB6B"/><polygon points="100 30.093 71.755 93.882 61.494 89.339 7.6 65.467 12.349 54.736 15.359 47.935 61.983 68.581 82.468 22.334 87.641 24.628 100 30.093" fill="#C7E021"/><polygon points="61.983 68.581 15.359 47.935 7.769 31.73 54.392 52.375 61.983 68.581" fill="#C9DB6B"/><polygon points="82.468 22.334 61.983 68.581 54.392 52.375 74.878 6.118 82.468 22.334" fill="#626533"/><polygon points="15.359 47.935 12.349 54.736 7.6 65.467 0 49.262 7.769 31.73 15.359 47.935" fill="#626533"/></svg></g><g transform="translate(0.00,&#10;                                674.96) rotate(0, 112.49333333333334, 112.49333333333334)"><svg xmlns="http://www.w3.org/2000/svg" id="Layer_1" data-name="Layer 1" viewBox="0 0 100 100" width="224.98666666666668" height="224.98666666666668"><path d="M87.092,0V14.879H13.838V83.944L0,87.092,13.838,100H100V14.879ZM82.849,81.808H32.03V32.03H82.849Z" fill="#411B1E"/><path d="M87.092,87.092H0V0H87.092ZM16.73,70.362H70.362V16.73H16.73Z" fill="#D481AE"/></svg></g><g transform="translate(674.96,&#10;                                449.97) rotate(0, 112.49333333333334, 112.49333333333334)"><svg xmlns="http://www.w3.org/2000/svg" id="Layer_1" data-name="Layer 1" viewBox="0 0 100 100" width="224.98666666666668" height="224.98666666666668"><path d="M92.043,50S77.614,100,50,100A50,50,0,0,1,50,0C77.614,0,92.043,50,92.043,50Z" fill="#EEF1D4"/><path d="M50,0a50,50,0,1,1,0,100" fill="#336FAB"/><path d="M74.75,74.75A34.9,34.9,0,0,1,50,85V70a20,20,0,0,0,0-40V15A35,35,0,0,1,74.75,74.75Z" fill="#EEF1D4"/><path d="M50,15V85a35,35,0,1,1,0-70Z" fill="#336FAB"/><path d="M64.14,64.14A19.945,19.945,0,0,1,50,70V30A20,20,0,0,1,64.14,64.14Z" fill="#336FAB"/><path d="M50,30V70a20,20,0,0,1,0-40Z" fill="#EEF1D4"/></svg></g><g transform="translate(449.97,&#10;                                674.96) rotate(0, 112.49333333333334, 112.49333333333334)"><svg xmlns="http://www.w3.org/2000/svg" id="Layer_1" data-name="Layer 1" viewBox="0 0 100 100" width="224.98666666666668" height="224.98666666666668"><path d="M87.092,0V14.879H13.838V83.944L0,87.092,13.838,100H100V14.879ZM82.849,81.808H32.03V32.03H82.849Z" fill="#411B1E"/><path d="M87.092,87.092H0V0H87.092ZM16.73,70.362H70.362V16.73H16.73Z" fill="#D481AE"/></svg></g><g transform="translate(674.96,&#10;                                674.96) rotate(90, 112.49333333333334, 112.49333333333334)"><svg xmlns="http://www.w3.org/2000/svg" id="Layer_1" data-name="Layer 1" viewBox="0 0 100 100" width="224.98666666666668" height="224.98666666666668"><polygon points="36.929 8.282 24.015 21.196 21.19 24.009 2 30.647 17.726 14.908 36.929 8.282" fill="#92DB8D" stroke="#26273B" stroke-linecap="round" stroke-linejoin="round" stroke-width="4"/><polygon points="82.274 8.282 69.359 21.196 59.595 30.949 53.319 24.672 63.071 14.908 82.274 8.282" fill="#92DB8D" stroke="#26273B" stroke-linecap="round" stroke-linejoin="round" stroke-width="4"/><polygon points="43.872 46.691 24.662 53.309 2 30.647 21.19 24.009 43.872 46.691" fill="#26273B" stroke="#26273B" stroke-linecap="round" stroke-linejoin="round" stroke-width="4"/><polygon points="43.872 46.691 21.19 69.353 2 75.991 24.652 53.319 24.662 53.309 43.872 46.691" fill="#92DB8D" stroke="#26273B" stroke-linecap="round" stroke-linejoin="round" stroke-width="4"/><polygon points="36.929 85.092 17.726 91.718 2 75.991 21.19 69.353 36.929 85.092" fill="#26273B" stroke="#26273B" stroke-linecap="round" stroke-linejoin="round" stroke-width="4"/><polygon points="75.334 46.687 98 69.353 82.274 85.092 75.985 78.804 59.595 62.413 46.681 75.328 36.929 85.092 21.19 69.353 43.869 46.687 21.19 24.009 24.015 21.196 36.929 8.282 59.595 30.949 69.359 21.196 82.274 8.282 98 24.009 75.334 46.687" fill="#00FFC7" stroke="#26273B" stroke-linecap="round" stroke-linejoin="round" stroke-width="4"/><polygon points="82.274 85.092 63.071 91.718 46.681 75.328 59.595 62.413 75.985 78.804 82.274 85.092" fill="#26273B" stroke="#26273B" stroke-linecap="round" stroke-linejoin="round" stroke-width="4"/></svg></g><g transform="translate(899.95,&#10;                                449.97) rotate(0, 112.49333333333334, 112.49333333333334)"><svg xmlns="http://www.w3.org/2000/svg" id="Layer_1" data-name="Layer 1" viewBox="0 0 100 100" width="224.98666666666668" height="224.98666666666668"><path d="M92.043,50S77.614,100,50,100A50,50,0,0,1,50,0C77.614,0,92.043,50,92.043,50Z" fill="#EEF1D4"/><path d="M50,0a50,50,0,1,1,0,100" fill="#336FAB"/><path d="M74.75,74.75A34.9,34.9,0,0,1,50,85V70a20,20,0,0,0,0-40V15A35,35,0,0,1,74.75,74.75Z" fill="#EEF1D4"/><path d="M50,15V85a35,35,0,1,1,0-70Z" fill="#336FAB"/><path d="M64.14,64.14A19.945,19.945,0,0,1,50,70V30A20,20,0,0,1,64.14,64.14Z" fill="#336FAB"/><path d="M50,30V70a20,20,0,0,1,0-40Z" fill="#EEF1D4"/></svg></g><g transform="translate(1124.93,&#10;                                674.96) rotate(270, 112.49333333333334, 112.49333333333334)"><svg xmlns="http://www.w3.org/2000/svg" id="Layer_1" data-name="Layer 1" viewBox="0 0 100 100" width="224.98666666666668" height="224.98666666666668"><polygon points="100 30.093 87.641 24.628 82.468 22.334 74.878 6.118 92.4 13.887 100 30.093" fill="#C9DB6B"/><polygon points="100 30.093 71.755 93.882 61.494 89.339 7.6 65.467 12.349 54.736 15.359 47.935 61.983 68.581 82.468 22.334 87.641 24.628 100 30.093" fill="#C7E021"/><polygon points="61.983 68.581 15.359 47.935 7.769 31.73 54.392 52.375 61.983 68.581" fill="#C9DB6B"/><polygon points="82.468 22.334 61.983 68.581 54.392 52.375 74.878 6.118 82.468 22.334" fill="#626533"/><polygon points="15.359 47.935 12.349 54.736 7.6 65.467 0 49.262 7.769 31.73 15.359 47.935" fill="#626533"/></svg></g></g></svg>