<svg class="border shadow-md" viewBox="0 0 1349.92 759.33" style="width: 1349.92px; height: 759.33px;" xmlns="http://www.w3.org/2000/svg" preserveAspectRatio="none"><rect class="bg" id="bg" x="0" y="0" width="1349.92" height="759.33" fill="#ffffff"/><g transform="rotate(0 674.96 379.665)"><path id="-1" d="M -309.98 -20.62 S -286.00 -51.62&#10;            0.00 -20.62 144.99 -60.62&#10;            309.98 -20.62 349.97 -45.93&#10;            619.97 -20.62 764.96 -45.93&#10;            929.95 -20.62 1074.94 -45.93&#10;            1239.94 -20.62 1384.93 -45.93&#10;            1549.92 -20.62 1694.91 -69.62&#10;            1859.90 -20.62 h 110 V 959.33 H -309.98 Z" fill="#554CA9"/><path id="0" d="M -309.98 30.00 S -164.99 4.69&#10;            0.00 30.00 37.98 -13.00&#10;            309.98 30.00 454.98 4.69&#10;            619.97 30.00 749.95 -4.00&#10;            929.95 30.00 1074.94 -3.00&#10;            1239.94 30.00 1252.92 4.69&#10;            1549.92 30.00 1694.91 -3.00&#10;            1859.90 30.00 h 110 V 959.33 H -309.98 Z" fill="#5147a5"/><path id="1" d="M -309.98 80.62 S -164.99 55.31&#10;            0.00 80.62 144.99 52.62&#10;            309.98 80.62 454.97 39.62&#10;            619.97 80.62 764.96 50.62&#10;            929.95 80.62 1074.94 50.62&#10;            1239.94 80.62 1296.92 32.62&#10;            1549.92 80.62 1694.91 40.62&#10;            1859.90 80.62 h 110 V 959.33 H -309.98 Z" fill="#4d42a1"/><path id="2" d="M -309.98 131.24 S -319.00 105.93&#10;            0.00 131.24 -4.02 105.93&#10;            309.98 131.24 454.98 105.93&#10;            619.97 131.24 764.96 88.24&#10;            929.95 131.24 1074.94 105.93&#10;            1239.94 131.24 1384.93 105.93&#10;            1549.92 131.24 1687.90 94.24&#10;            1859.90 131.24 h 110 V 959.33 H -309.98 Z" fill="#493d9d"/><path id="3" d="M -309.98 181.87 S -164.99 150.87&#10;            0.00 181.87 35.98 135.87&#10;            309.98 181.87 454.98 156.55&#10;            619.97 181.87 724.95 153.87&#10;            929.95 181.87 1074.94 156.55&#10;            1239.94 181.87 1384.93 156.55&#10;            1549.92 181.87 1694.91 139.87&#10;            1859.90 181.87 h 110 V 959.33 H -309.98 Z" fill="#453899"/><path id="4" d="M -309.98 232.49 S -164.99 207.18&#10;            0.00 232.49 144.99 189.49&#10;            309.98 232.49 442.97 207.18&#10;            619.97 232.49 764.96 205.49&#10;            929.95 232.49 1074.94 207.18&#10;            1239.94 232.49 1357.92 207.18&#10;            1549.92 232.49 1646.90 195.49&#10;            1859.90 232.49 h 110 V 959.33 H -309.98 Z" fill="#413395"/><path id="5" d="M -309.98 283.11 S -164.99 240.11&#10;            0.00 283.11 107.98 257.80&#10;            309.98 283.11 325.97 257.80&#10;            619.97 283.11 670.95 257.80&#10;            929.95 283.11 1042.94 246.11&#10;            1239.94 283.11 1294.92 241.11&#10;            1549.92 283.11 1572.90 242.11&#10;            1859.90 283.11 h 110 V 959.33 H -309.98 Z" fill="#3d2e91"/><path id="6" d="M -309.98 333.73 S -164.99 283.73&#10;            0.00 333.73 144.99 308.42&#10;            309.98 333.73 454.98 308.42&#10;            619.97 333.73 764.96 302.73&#10;            929.95 333.73 1006.94 308.42&#10;            1239.94 333.73 1384.93 296.73&#10;            1549.92 333.73 1564.90 300.73&#10;            1859.90 333.73 h 110 V 959.33 H -309.98 Z" fill="#39298d"/><path id="7" d="M -309.98 384.35 S -164.99 353.35&#10;            0.00 384.35 144.99 359.04&#10;            309.98 384.35 454.98 351.35&#10;            619.97 384.35 764.96 359.04&#10;            929.95 384.35 1024.94 359.04&#10;            1239.94 384.35 1384.93 354.35&#10;            1549.92 384.35 1562.90 358.35&#10;            1859.90 384.35 h 110 V 959.33 H -309.98 Z" fill="#352489"/><path id="8" d="M -309.98 434.98 S -164.99 409.67&#10;            0.00 434.98 55.98 406.98&#10;            309.98 434.98 351.97 409.67&#10;            619.97 434.98 764.96 395.98&#10;            929.95 434.98 1074.94 402.98&#10;            1239.94 434.98 1327.92 398.98&#10;            1549.92 434.98 1623.90 409.67&#10;            1859.90 434.98 h 110 V 959.33 H -309.98 Z" fill="#311f85"/><path id="9" d="M -309.98 485.60 S -169.00 460.29&#10;            0.00 485.60 69.98 436.60&#10;            309.98 485.60 432.97 460.29&#10;            619.97 485.60 764.96 460.29&#10;            929.95 485.60 1074.94 449.60&#10;            1239.94 485.60 1232.92 460.29&#10;            1549.92 485.60 1576.90 460.29&#10;            1859.90 485.60 h 110 V 959.33 H -309.98 Z" fill="#2d1a81"/><path id="10" d="M -309.98 536.22 S -268.00 510.22&#10;            0.00 536.22 83.98 510.91&#10;            309.98 536.22 331.97 510.91&#10;            619.97 536.22 618.95 510.91&#10;            929.95 536.22 943.94 502.22&#10;            1239.94 536.22 1238.92 493.22&#10;            1549.92 536.22 1694.91 498.22&#10;            1859.90 536.22 h 110 V 959.33 H -309.98 Z" fill="#29157d"/><path id="11" d="M -309.98 586.84 S -244.00 548.84&#10;            0.00 586.84 34.98 549.84&#10;            309.98 586.84 339.97 561.53&#10;            619.97 586.84 696.95 554.84&#10;            929.95 586.84 1074.94 547.84&#10;            1239.94 586.84 1242.92 561.53&#10;            1549.92 586.84 1694.91 552.84&#10;            1859.90 586.84 h 110 V 959.33 H -309.98 Z" fill="#251079"/><path id="12" d="M -309.98 637.46 S -164.99 612.15&#10;            0.00 637.46 144.99 612.15&#10;            309.98 637.46 304.97 610.46&#10;            619.97 637.46 633.95 612.15&#10;            929.95 637.46 959.94 612.15&#10;            1239.94 637.46 1346.92 609.46&#10;            1549.92 637.46 1569.90 589.46&#10;            1859.90 637.46 h 110 V 959.33 H -309.98 Z" fill="#210b75"/><path id="13" d="M -309.98 688.09 S -248.00 662.77&#10;            0.00 688.09 131.98 662.77&#10;            309.98 688.09 376.97 641.09&#10;            619.97 688.09 734.95 662.77&#10;            929.95 688.09 1074.94 661.09&#10;            1239.94 688.09 1384.93 662.77&#10;            1549.92 688.09 1694.91 662.77&#10;            1859.90 688.09 h 110 V 959.33 H -309.98 Z" fill="#1d0671"/><path id="14" d="M -309.98 738.71 S -273.00 700.71&#10;            0.00 738.71 144.99 713.40&#10;            309.98 738.71 392.97 696.71&#10;            619.97 738.71 684.95 689.71&#10;            929.95 738.71 1074.94 696.71&#10;            1239.94 738.71 1265.92 713.40&#10;            1549.92 738.71 1609.90 713.40&#10;            1859.90 738.71 h 110 V 959.33 H -309.98 Z" fill="#19016d"/></g></svg>