<svg class="border shadow-md" viewBox="0 0 785.84 785.84" style="width: 785.84px; height: 785.84px;" xmlns="http://www.w3.org/2000/svg" preserveAspectRatio="none"><rect class="bg" id="bg" x="0" y="0" width="785.84" height="785.84" fill="#ffffff"/><g transform="rotate(0 392.92 392.92)"><path d="M -328.61 -35.49 S -247.00 -68.23&#10;            0.00 -35.49 51.61 -84.49&#10;            328.61 -35.49 482.92 -68.23&#10;            657.23 -35.49 803.84 -82.49&#10;            985.84 -35.49 1140.15 -68.23&#10;            1314.45 -35.49 h 110 V 985.84 H -328.61 Z" fill="#BB6AA5" id="-1"/><path d="M -328.61 30.00 S -199.00 -28.00&#10;            0.00 30.00 113.61 -16.00&#10;            328.61 30.00 482.92 -4.00&#10;            657.23 30.00 678.84 -31.00&#10;            985.84 30.00 1117.45 -5.00&#10;            1314.45 30.00 h 110 V 985.84 H -328.61 Z" fill="#bd71ab" id="0"/><path d="M -328.61 95.49 S -174.31 32.49&#10;            0.00 95.49 141.61 54.49&#10;            328.61 95.49 385.23 62.74&#10;            657.23 95.49 750.84 62.74&#10;            985.84 95.49 1098.45 58.49&#10;            1314.45 95.49 h 110 V 985.84 H -328.61 Z" fill="#bf78b1" id="1"/><path d="M -328.61 160.97 S -215.00 110.97&#10;            0.00 160.97 154.31 107.97&#10;            328.61 160.97 482.92 128.23&#10;            657.23 160.97 811.53 96.97&#10;            985.84 160.97 1001.45 128.23&#10;            1314.45 160.97 h 110 V 985.84 H -328.61 Z" fill="#c17fb7" id="2"/><path d="M -328.61 226.46 S -225.00 193.46&#10;            0.00 226.46 126.61 163.46&#10;            328.61 226.46 427.23 193.72&#10;            657.23 226.46 791.84 193.72&#10;            985.84 226.46 1140.15 186.46&#10;            1314.45 226.46 h 110 V 985.84 H -328.61 Z" fill="#c386bd" id="3"/><path d="M -328.61 291.95 S -174.31 259.20&#10;            0.00 291.95 130.61 249.95&#10;            328.61 291.95 482.92 259.20&#10;            657.23 291.95 750.84 259.20&#10;            985.84 291.95 1004.45 236.95&#10;            1314.45 291.95 h 110 V 985.84 H -328.61 Z" fill="#c58dc3" id="4"/><path d="M -328.61 357.43 S -174.31 324.69&#10;            0.00 357.43 67.61 324.69&#10;            328.61 357.43 482.92 301.43&#10;            657.23 357.43 749.84 314.43&#10;            985.84 357.43 1140.15 302.43&#10;            1314.45 357.43 h 110 V 985.84 H -328.61 Z" fill="#c794c9" id="5"/><path d="M -328.61 422.92 S -174.31 381.92&#10;            0.00 422.92 154.31 390.18&#10;            328.61 422.92 482.92 380.92&#10;            657.23 422.92 655.84 390.18&#10;            985.84 422.92 1140.15 390.18&#10;            1314.45 422.92 h 110 V 985.84 H -328.61 Z" fill="#c99bcf" id="6"/><path d="M -328.61 488.41 S -207.00 424.41&#10;            0.00 488.41 145.61 432.41&#10;            328.61 488.41 421.23 455.41&#10;            657.23 488.41 811.53 455.66&#10;            985.84 488.41 1074.45 455.66&#10;            1314.45 488.41 h 110 V 985.84 H -328.61 Z" fill="#cba2d5" id="7"/><path d="M -328.61 553.89 S -174.31 491.89&#10;            0.00 553.89 85.61 521.15&#10;            328.61 553.89 482.92 521.15&#10;            657.23 553.89 667.84 521.15&#10;            985.84 553.89 1140.15 521.15&#10;            1314.45 553.89 h 110 V 985.84 H -328.61 Z" fill="#cda9db" id="8"/><path id="9" d="M -328.61 619.38 S -280.00 586.64&#10;            0.00 619.38 154.31 586.64&#10;            328.61 619.38 482.92 586.64&#10;            657.23 619.38 754.84 561.38&#10;            985.84 619.38 1140.15 586.64&#10;            1314.45 619.38 h 110 V 985.84 H -328.61 Z" fill="#cfb0e1"/><path id="10" d="M -328.61 684.87 S -231.00 652.12&#10;            0.00 684.87 43.61 652.12&#10;            328.61 684.87 411.23 652.12&#10;            657.23 684.87 715.84 632.87&#10;            985.84 684.87 984.45 635.87&#10;            1314.45 684.87 h 110 V 985.84 H -328.61 Z" fill="#d1b7e7"/><path id="11" d="M -328.61 750.35 S -174.31 700.35&#10;            0.00 750.35 118.61 717.61&#10;            328.61 750.35 438.23 717.61&#10;            657.23 750.35 811.53 717.61&#10;            985.84 750.35 1140.15 714.35&#10;            1314.45 750.35 h 110 V 985.84 H -328.61 Z" fill="#d3beed"/></g></svg>